<?xml version="1.0" encoding="UTF-8"?><svg id="workspace" xmlns="http://www.w3.org/2000/svg" viewBox="0 0 675.793 439.788"><path d="m427.072,79.695c-1.83,2.472-3.667,4.936-5.544,7.375-4.029,5.281-8.114,10.513-12.253,15.711-2.065,2.579-4.156,5.198-6.244,7.72l-6.427,7.635-6.419,7.635-1.607,1.915c-.257.299-.555.662-.786.922l-.827.929-3.3,3.739-3.308,3.739-.827.937-.38.425-.429.456-1.709,1.816c-2.295,2.453-4.531,4.746-6.96,7.067-1.548,1.498-3.128,2.971-4.732,4.428-3.493,3.091-7.072,6.075-10.706,8.986-2.608,2.083-5.232,4.142-7.902,6.135l-8.058,5.947-16.108,11.894c-10.752,7.907-21.381,16.051-31.22,25.13-4.904,4.552-9.651,9.277-14.03,14.357-1.009,1.141-1.994,2.307-2.956,3.482-5.097.607-11.059.751-16.325-.6-12.242-3.154-16.492-3.001-16.492-3.001,0,0-4.598-2.356-12.14-3.055-2.327-.21-3.454-.486-3.881-.762-.966-.611,1.557-1.208,2.02-1.068.654.217,24.209-9.725,9.703-22.222-14.506-12.505-11.4-17.873-11.4-17.873-.995-1.416-5.012-10.753-4.281-15.014.715-4.252-.733-7.191-.672-12.963.053-5.78-9.491-22.917-10.409-27.491-.746-3.709.386-3.288.837-3.003.111.067.182.117.182.117.263,7.324,11.999,17.381,21.034,23.103,3.666,2.325,6.884,3.932,8.715,4.355,6.333,1.458,13.271-2.747,13.878-18.341.622-15.593-3.662-19.582-3.802-22.746s-.471-14.928-1.383-19.068c-.695-3.153-.186-5.231.21-4.989.118.083.232.384.29.948.213,2.144,2.624,7.117,6.798,9.76.499.318,1.031.604,1.596.843,5.14,2.241,12.579-6.656,14.179-9.617,1.616-2.96,5.064-6.486,5.064-6.486,8.206-8.355,11.066-28.663,12.771-32.609,1.627-3.732,2.721-10.315,3.869-9.587.055.042.118.099.188.181,1.215,1.622-1.215-1.63.172,6.429,1.379,8.051-1.596,15.931,3.023,31.259,2.178,7.283,5.475,10.901,8.326,12.708,3.152,1.999,5.763,1.757,5.763,1.757-3.217,5.269-1.05,26.833,1.3,33.669.735,2.157,2.03,3.821,3.796,4.934,3.88,2.467,10.107,2.338,18.163-.883,11.726-4.683,24.792-41.113,26.408-42.77.074-.079.155-.093.218-.043,1.156.728,1.678,16.236,7.696,20.042,1.37.87,3.02,1.135,5.038.485,11.405-3.71,9.813.562,23.494-5.457,9.812-4.328,20.599-13.022,28.786-19.319Z" stroke-width="0"/><path d="m337.897,0c-95.386,0-172.995,77.609-172.995,172.995,0,55.172,25.96,104.387,66.308,136.086,1.295,1.015,2.59,2.01,3.916,2.983,1.305.974,2.631,1.927,3.968,2.859,2.362,1.657,4.775,3.253,7.231,4.786.787-2.755,1.606-5.511,2.455-8.246,2.683-8.65,5.656-17.217,8.784-25.701,7.324-19.837,18.781-37.427,31.274-54.364.818-1.025,1.595-1.989,2.362-2.911-.228.321-.445.621-.653.912,12.462-14.492,20.77-20.304,21.837-21.018-1.719,1.419-19.63,16.419-26.623,42.078.114,3.232.528,6.454,1.471,9.541,3.688,12.089,3.729,16.346,3.729,16.346,0,0,2.548,4.485,3.564,11.975.362,2.766.756,3.823,1.098,4.03.041.021.083.041.124.041.497,0,.839-1.896.684-2.279-.187-.497,5.117-15.021,13.632-15.021,1.43,0,2.963.414,4.568,1.378,1.16.704,2.351,1.668,3.584,2.973,4.195,4.465,7.583,7.158,10.255,8.753,2.983,1.792,5.065,2.217,6.371,2.217,1.191,0,1.74-.352,1.74-.352.021.01.041.031.062.052,1.481.88,8.961,3.719,13.529,3.719.58,0,1.108-.041,1.575-.145,1.108-.238,2.144-.321,3.159-.321,2.414,0,4.765.477,8.028.477.57,0,1.171-.021,1.802-.052.104-.01.207-.01.311-.01,6.06,0,23.069,8.494,27.586,9.199.756.114,1.336.166,1.792.166,2.3,0,1.067-1.295,1.067-1.295h-.072c-1.989,0-4.206-.829-6.505-2.206-9.644-5.791-20.749-21.267-22.148-26.312-1.751-6.278,2.165-13.384,17.704-14.679,2.113-.176,4.009-.249,5.728-.249,10.949,0,14.44,3.077,17.175,3.077,1.077,0,3.139-.021,5.563-.021,4.724,0,10.794.083,13.539.559.922.166,1.751.228,2.455.228,1.885,0,2.9-.466,2.445-.725-.145-.093-.425-.155-.88-.186-1.15-.062-3.139-.715-5.169-1.937-2.227-1.336-4.506-3.336-5.791-5.977-2.455-5.034,6.112-12.855,8.992-14.596,2.89-1.73,6.257-5.335,6.257-5.335,7.987-8.567,28.156-12.306,32.02-14.181,3.864-1.875,10.898-3.325,9.23-4.454-.207-.135-.321-.228-.414-.28-.062-.042-.104-.052-.135-.052-.166,0,.218.704-2.352.704-.829,0-1.968-.073-3.543-.269-1.202-.155-2.393-.207-3.595-.207-3.708,0-7.593.539-12.41.539-4.226,0-9.168-.414-15.342-1.989-3.346-.849-5.936-1.958-7.966-3.17-7.386-4.434-7.106-10.276-7.106-10.276-2.32,1.554-8.028,2.155-14.233,2.155-7.479,0-15.683-.87-19.475-1.999-.86-.249-1.647-.591-2.362-1.026-5.034-3.014-6.288-10.266-2.631-20.718,4.185-11.923,39.996-26.56,41.571-28.249.124-.124.093-.238-.072-.352-1.419-.839-11.985-1.005-17.662-4.403-2.652-1.585-4.227-3.885-3.273-7.293,3.201-11.561-.994-9.779,4.423-23.712,5.428-13.922,19.257-30.114,23.567-38.111-1.098.694-2.362,1.595-3.75,2.662-1.15,1.637-2.548,3.636-4.185,5.956-5.117,7.117-12.503,17.258-21.764,29.13-4.62,5.936-9.717,12.296-15.228,18.936-2.755,3.315-5.615,6.702-8.567,10.121-1.523,1.689-3.056,3.387-4.61,5.107-.767.87-1.575,1.709-2.403,2.538-.818.829-1.647,1.658-2.476,2.507-6.65,6.661-13.974,13.104-21.609,19.392-7.624,6.288-15.569,12.421-23.422,18.657-7.842,6.226-15.611,12.555-22.893,19.175-7.303,6.619-14.057,13.487-20.055,20.697-.715.86-1.398,1.72-2.082,2.59-5.066,6.402-9.541,12.949-13.456,19.402-4.454,7.324-8.225,14.503-11.447,21.267-5.024,10.546-9.354,21.423-13.208,32.455-1.315-.953-2.621-1.916-3.916-2.911-1.305-.995-2.59-2.01-3.864-3.046-37.137-30.227-60.9-76.283-60.9-127.788,0-90.817,73.891-164.708,164.708-164.708,43.881,0,83.804,17.248,113.358,45.31l6.847-4.33-3.895,7.22c29.886,29.823,48.397,71.042,48.397,116.507,0,90.817-73.891,164.708-164.708,164.708-29.388,0-56.985-7.728-80.893-21.267-.58,1.896-1.15,3.854-1.72,5.832l-.663,2.32c24.716,13.632,53.111,21.402,83.276,21.402,95.385,0,172.995-77.609,172.995-172.995S433.282,0,337.897,0Zm-76.501,276.005c-.518,1.274-1.025,2.538-1.523,3.802.445-1.233.953-2.507,1.523-3.802Z" stroke-width="0"/><path d="m261.395,276.005c-.518,1.274-1.025,2.538-1.523,3.802.445-1.233.953-2.507,1.523-3.802Z" stroke-width="0"/><path d="m451.255,53.597c.994.953,1.979,1.906,2.952,2.89l3.895-7.22-6.847,4.33Z" stroke-width="0"/><path d="m58.596,439.788h-9.092v-42.773l-17.818,29.105h-5.511l-17.679-29.105v42.773H0v-49.641h12.398l17.083,27.637,16.485-27.637h12.629v49.641Z" stroke-width="0"/><path d="m83.88,439.788l23.052-49.641h11.205l23.052,49.641h-9.597l-6.2-13.869h-26.129l-6.2,13.869h-9.184Zm38.987-19.503l-10.562-23.404-10.515,23.404h21.078Z" stroke-width="0"/><path d="m209.639,405.116c0,2.156-.528,4.195-1.584,6.117-1.056,1.924-2.518,3.563-4.385,4.918-2.358,1.689-5.128,2.967-8.311,3.834-3.185.867-7.21,1.3-12.078,1.3h-7.714v18.503h-9.092v-49.641h17.175c4.041,0,7.485.245,10.332.733,2.847.489,5.357,1.279,7.531,2.367,2.541,1.266,4.53,2.872,5.97,4.817,1.439,1.945,2.158,4.296,2.158,7.052Zm-9.46.167c0-1.711-.406-3.2-1.217-4.468-.811-1.266-2.043-2.3-3.696-3.101-1.44-.689-3.116-1.177-5.029-1.467-1.913-.288-4.293-.433-7.141-.433h-7.531v19.836h6.2c3.673,0,6.643-.217,8.909-.65,2.265-.434,4.147-1.206,5.648-2.317,1.347-1,2.326-2.089,2.939-3.267.613-1.178.919-2.556.919-4.134Z" stroke-width="0"/><path d="m276.757,439.788h-39.63v-49.641h9.092v43.773h30.537v5.868Z" stroke-width="0"/><path d="m302.73,439.788v-49.641h42.753v5.868h-33.66v13.602h31.364v5.868h-31.364v18.436h33.66v5.868h-42.753Z" stroke-width="0"/><path d="m462.132,439.788h-39.63v-49.641h9.091v43.773h30.539v5.868Z" stroke-width="0"/><path d="m488.106,439.788v-49.641h42.752v5.868h-33.661v13.602h31.364v5.868h-31.364v18.436h33.661v5.868h-42.752Z" stroke-width="0"/><path d="m552.284,439.788l23.052-49.641h11.204l23.052,49.641h-9.597l-6.199-13.869h-26.13l-6.199,13.869h-9.184Zm38.986-19.503l-10.561-23.404-10.516,23.404h21.077Z" stroke-width="0"/><path d="m675.793,396.015h-31.823v14.002h30.492v5.868h-30.492v23.903h-9.091v-49.641h40.914v5.868Z" stroke-width="0"/></svg>